<svg xmlns="http://www.w3.org/2000/svg" viewBox="0 0 329.34 159.33"><defs><style>.cls-1{fill:#e41e2f;}.cls-2{fill:#24366e;}.cls-3{fill:#e22030;}.cls-4{fill:#f1aa1f;}</style></defs><g id="Calque_2" data-name="Calque 2"><g id="Calque_1-2" data-name="Calque 1"><path class="cls-1" d="M0,54.3V.8H9.8V54.3Z"/><path class="cls-1" d="M31.8,51.6a23.16,23.16,0,0,1-9-9.6,31.61,31.61,0,0,1-3.1-14.5A31.9,31.9,0,0,1,22.8,13a23.16,23.16,0,0,1,9-9.6A26.65,26.65,0,0,1,45.6,0,31.18,31.18,0,0,1,55.8,1.7a21.74,21.74,0,0,1,8,4.7l-3.3,7.1a26.92,26.92,0,0,0-7.2-4.2A21.31,21.31,0,0,0,45.7,8c-5.2,0-9.1,1.7-12,5s-4.2,8.1-4.2,14.4,1.4,11.2,4.2,14.5,6.8,5,12,5a21.31,21.31,0,0,0,7.6-1.3,26.92,26.92,0,0,0,7.2-4.2l3.3,7.1a23.51,23.51,0,0,1-8,4.7,31.18,31.18,0,0,1-10.2,1.7A26.62,26.62,0,0,1,31.8,51.6Z"/><path class="cls-1" d="M112.7,54.3l-5.4-12.5h-26L75.9,54.3H66L90.2.8h8l24.2,53.5ZM84.4,34.2H104L94.2,11.4Z"/><path class="cls-1" d="M128.1.8h23.4c5.7,0,10.2,1.4,13.4,4.3s4.8,6.9,4.8,12-1.6,9.2-4.8,12.1-7.6,4.3-13.4,4.3H137.9V54.3h-9.8V.8ZM150.3,26c6.7,0,10.1-2.9,10.1-8.8,0-3-.8-5.2-2.5-6.6s-4.2-2.2-7.6-2.2H137.9V26Z"/><path class="cls-1" d="M184.8,53.3a27,27,0,0,1-9.1-4.7l3.3-7.1a25.86,25.86,0,0,0,8.2,4.3,31.22,31.22,0,0,0,9.3,1.4c3.7,0,6.5-.6,8.5-1.9a6.11,6.11,0,0,0,3-5.4,4.91,4.91,0,0,0-2.8-4.6c-1.8-1.1-4.9-2.1-9.2-3A62.66,62.66,0,0,1,185.1,29a15.24,15.24,0,0,1-6.3-4.9,12.76,12.76,0,0,1-2.1-7.5,14.64,14.64,0,0,1,2.6-8.4,16.46,16.46,0,0,1,7.3-5.8A26.5,26.5,0,0,1,197.5.3,34.73,34.73,0,0,1,208.2,2a21.51,21.51,0,0,1,8.3,4.7l-3.3,7.1a24.76,24.76,0,0,0-15.8-5.7,14.23,14.23,0,0,0-8.2,2.1,6.66,6.66,0,0,0-3,5.8,5.3,5.3,0,0,0,2.7,4.8,30.37,30.37,0,0,0,9,3.1,55.62,55.62,0,0,1,11,3.4,16.33,16.33,0,0,1,6.5,4.7,11.53,11.53,0,0,1,2.2,7.3,14.12,14.12,0,0,1-2.5,8.4,15.11,15.11,0,0,1-7.4,5.5,30.07,30.07,0,0,1-11.3,1.9A42.69,42.69,0,0,1,184.8,53.3Z"/><path class="cls-2" d="M88,114c0,2.8,1.7,3.8,3.8,4.5a45.25,45.25,0,0,0,7.3,1.6c2.3.3,3.3,1.1,4.1,3.4s-.1,3.2-1.5,4.6a84.21,84.21,0,0,0-5.5,6.4c-1.3,1.7-.9,3.2.3,4.9s2.6,2.5,4.6,1.9a67.06,67.06,0,0,0,7.5-2.7c1.9-.9,3.3-1.4,5.3.4,1.8,1.6,2.2,2.9,1.5,5.1a38.72,38.72,0,0,0-1.2,6.8c-.3,2.3.2,4.2,2.7,5.2s4.1.5,5.7-1.5c1.1-1.4,2.3-2.8,3.4-4.3,1.4-1.8,1.8-4.3,5.4-4,3.9.3,3.6,3.2,4.7,5.4.9,1.8,1.7,3.6,2.7,5.3a3.76,3.76,0,0,0,4.5,2.2c2.3-.4,3.7-1.5,3.9-3.8a61.72,61.72,0,0,0,.7-7.4c-.1-2.4.6-3.7,2.9-5,2.5-1.3,3.6,0,5.2,1.1,2.2,1.5,4.5,2.8,6.7,4.2,1.7,1,3,.4,4.4-.8s2.4-2.8,1.6-4.7c-.9-2.1-2-4.1-3-6.2-.9-1.9-3.1-3.1-1.2-6.1s4-2.3,6.4-2.2h2.2c2.1-.3,5.5,1.1,7.4-2.1,1.3-2.2,1.6-4.8-1.2-6.4-2.3-1.3-4.5-2.8-6.9-3.9a3.88,3.88,0,0,1-2.7-4.1c0-2.1.5-3.3,2.5-4.3a57.9,57.9,0,0,0,6.7-4.2c1.6-1.1,2.5-2.5,1.7-4.7s-1.8-3.6-4.1-3.5a45.3,45.3,0,0,0-7.4.4c-2.3.3-3.8,0-5.4-2.1s-.6-3.5.3-5.3c1.2-2.3,2.1-4.8,3.1-7.3.9-2.1-.4-3.4-1.8-4.7a3.39,3.39,0,0,0-4.5-.4c-1.9,1.3-3.9,2.6-5.7,3.9s-2.9,3.3-5.9,1.8c-2.7-1.3-3-3-3-5.5a33.53,33.53,0,0,0-.8-5.4c-.4-2.6-1.7-4.1-4.4-4.5-3.2-.6-4,1.7-5,3.8a28.8,28.8,0,0,0-2,5.6c-.5,2.5-2.1,3.2-4.4,3.7s-3.2-.7-4.4-2.2c-1.6-1.9-3.2-3.8-4.9-5.6-1.5-1.7-3.2-1.9-5.3-.8a4.15,4.15,0,0,0-2.4,4.9c.4,2.3.9,4.6,1.5,6.8.6,2,.8,3.5-1.2,5.1-1.8,1.5-3.1,1.8-5.2.8a53.56,53.56,0,0,0-7.1-2.3c-2.3-.7-3.7.4-4.9,2.3A3.56,3.56,0,0,0,96,93a59.44,59.44,0,0,0,5.5,5.7c1.5,1.3,2.3,2.5,1.6,4.7s-1.6,3.3-3.9,3.7A47.86,47.86,0,0,0,92,109C89.6,110.1,88,111.3,88,114Zm31.5-1.4a16,16,0,1,1,15.9,16.1A15.73,15.73,0,0,1,119.5,112.6Z"/><path class="cls-3" d="M238.8,51.1c2.2.8,4.3,1.6,6.5,2.3,1.8.6,3.7.6,4.1,3.4.4,2.5,0,4-2.1,5.4a24.54,24.54,0,0,0-4.7,4.4c-1.6,1.6-2.5,3.3-1.2,5.7,1.4,2.7,3.4,2.9,5.8,2.4a43.69,43.69,0,0,0,6.2-1.7c1.8-.6,3.2-1.1,4.8.8s2.6,3.1,1.4,5.6c-.9,1.7-1,3.8-1.5,5.7-.6,2.4-.6,4.4,1.9,6,2.9,1.8,4.7.3,6.5-1.5a54.79,54.79,0,0,0,4-4.4c1.2-1.5,2.1-2.5,4.5-1.9,2.2.6,3.4,1.4,3.9,3.7a65.94,65.94,0,0,0,2.5,7.5c.7,2,2.3,2.5,4.4,2.4s3.5-1,4-3a45,45,0,0,0,1.5-7.3,4.53,4.53,0,0,1,3.4-4.7c2.4-.9,3.6.1,5.1,1.6a61.53,61.53,0,0,0,6.2,5c1.6,1.2,3.2,1.2,5-.2s2.7-2.8,1.9-5.1c-1-2.5-1.8-5-3-7.3-.8-1.7-1.7-2.9-.1-4.8s2.9-2.8,5.4-2.1a28.91,28.91,0,0,0,5.9.8c2.8.2,5.1-.1,6.3-3.4s-1.3-4.5-3.1-6a32,32,0,0,0-4.5-3c-1.7-1-3.2-1.8-2.8-4.5a4.41,4.41,0,0,1,3.3-4.2,50.8,50.8,0,0,0,6.6-3.3c1.9-1.1,2.8-2.5,2.3-4.9a4.17,4.17,0,0,0-4-3.7,46.53,46.53,0,0,0-7.4-.4c-2.2.2-3.6,0-4.8-2.3a4.22,4.22,0,0,1,.5-5.3,57.7,57.7,0,0,0,4-6.8c1.3-2.1.5-3.6-1.1-5.3-1.5-1.5-3-1.9-4.9-.9a31.32,31.32,0,0,1-4.8,2.5c-2.2.9-3.3,4.1-6.8,2.2s-2.5-4.5-2.6-7.2c-.1-1.5,0-3-.2-4.5-.3-2.4-1.1-4.3-4-4.9-2.7-.6-4.1.9-5.2,2.8a35.9,35.9,0,0,0-3.1,6.2c-.7,2-1.6,2.9-3.9,3s-3.6-.5-4.7-2.6A41.36,41.36,0,0,0,272,7.2a3.7,3.7,0,0,0-5.1-1.4c-2.1.9-3.4,2-3.2,4.4a59.82,59.82,0,0,0,.8,7.4c.5,2.2,0,3.5-1.8,5-2,1.6-3.5,1-5.3,0a52.4,52.4,0,0,0-6.9-2.8c-2.1-.7-3.7-.1-5.1,1.8s-1.3,3.4-.1,5a52,52,0,0,0,4.6,5.9c1.5,1.5,2.4,2.7,1.5,5.1s-2.5,3-4.8,3.2a51,51,0,0,0-6.8,1.3c-2.1.5-3.2,1.7-3.5,4.2C235.7,49.1,236.8,50.3,238.8,51.1ZM266.7,50a16.05,16.05,0,0,1,32.1,0,16.05,16.05,0,1,1-32.1,0Z"/><path class="cls-4" d="M175,111.7a3.52,3.52,0,0,0,2.5,3.8,66.55,66.55,0,0,0,7.6,2.3c2.1.5,3.3,1.3,4,3.6.8,2.5-.4,3.6-1.9,5a65.1,65.1,0,0,0-5.1,5.4c-1.6,1.8-1.3,3.5-.1,5.4s2.7,2.5,4.6,1.9a58.31,58.31,0,0,0,7.1-2.2c1.9-.8,3.2-1,4.8.6s2.5,2.8,1.8,5.1a50.12,50.12,0,0,0-1.6,7.7c-.4,2.1.8,3.3,2.6,4.3s3.5.9,4.9-.6a51.7,51.7,0,0,0,4.9-5.6c1.3-1.7,2.3-2.8,4.8-2.3a4.46,4.46,0,0,1,3.9,3.7,38.66,38.66,0,0,0,3,7.3,3.62,3.62,0,0,0,4,2.2c2.1-.2,3.6-.9,4-3a46.28,46.28,0,0,0,1.3-8.3c.1-2.2,1-3.2,2.9-4.1a4,4,0,0,1,4.9.8,70.14,70.14,0,0,0,6.8,5c1.9,1.3,3.7.8,5.4-.7a3.68,3.68,0,0,0,1.2-4.8A46.87,46.87,0,0,0,250,137a4.21,4.21,0,0,1,0-5.3c1.4-2,2.8-2.2,5-1.8a52.28,52.28,0,0,0,7.9.4c2.2,0,3.1-1.3,3.9-3.2a3.63,3.63,0,0,0-1.3-4.8,58.67,58.67,0,0,0-6.7-4.3c-2-1-2.9-2.2-2.8-4.6.1-2.2,1.1-3.2,2.9-4,2.1-1,4.1-2.1,6.1-3.3s3.5-2.7,2.5-5.7c-.9-2.7-2.6-3.1-4.9-3.2h-4c-2,0-4.5.8-5.8-.2-1.9-1.4-3.9-3.6-1.8-6.7a52.85,52.85,0,0,0,4-7.4c1-2.1.2-3.8-1.5-5.3a3.83,3.83,0,0,0-5-.4c-1.9,1.1-3.7,2.2-5.5,3.4s-2.9,3.2-6,1.6-2.7-3.7-2.7-6.1a32.72,32.72,0,0,0-.4-5.4,4.82,4.82,0,0,0-4.4-4.5c-2.7-.5-3.7,1.1-4.6,2.8a39.08,39.08,0,0,0-2.8,6.3c-.7,2-1.5,3.2-4.1,3.5s-3.6-.7-4.7-2.6a62.75,62.75,0,0,0-3.8-5.2c-1.6-1.9-3.2-3-6-1.6s-3,3.3-2.7,5.7a29.25,29.25,0,0,0,1.1,5.9c.7,2.1.5,3.6-1.4,5.2s-3.3,1.4-5.3.5a66.48,66.48,0,0,0-7.5-2.6c-2.1-.7-3.3.4-4.6,2s-1.5,3.3-.2,4.9a58.81,58.81,0,0,0,5.2,6c1.5,1.5,2.3,2.8,1.4,5.1a4.47,4.47,0,0,1-4.4,3.2,29,29,0,0,0-7.7,1.9C175.6,108.2,175.1,109.7,175,111.7Zm30.9.8a16.26,16.26,0,0,1,16-15.7c8.8,0,16.3,7.3,16.2,16a16.1,16.1,0,0,1-32.2-.3Z"/></g></g></svg>
